<svg width="19" height="20" viewBox="0 0 19 20" fill="none" xmlns="http://www.w3.org/2000/svg">
<path fill-rule="evenodd" clip-rule="evenodd" d="M4.59195 1.86417C5.78555 0.67056 7.40443 0 9.09244 0C10.7805 0 12.3993 0.67056 13.5929 1.86417C14.7865 3.05777 15.4571 4.67665 15.4571 6.36466C15.4571 9.41302 16.1091 11.306 16.7099 12.4076C17.0116 12.9607 17.3054 13.3235 17.5094 13.5389C17.6117 13.6468 17.6921 13.7184 17.7404 13.7587C17.7646 13.7789 17.7809 13.7913 17.7879 13.7965C17.789 13.7973 17.7898 13.7979 17.7905 13.7984C18.1164 14.0223 18.2607 14.4319 18.1458 14.8113C18.0297 15.1948 17.6762 15.457 17.2756 15.457H0.909308C0.508637 15.457 0.155192 15.1948 0.0390842 14.8113C-0.075791 14.4319 0.0684496 14.0223 0.394397 13.7984C0.395035 13.7979 0.395903 13.7973 0.396996 13.7965C0.403996 13.7913 0.420229 13.7789 0.444435 13.7587C0.492821 13.7184 0.573183 13.6468 0.675449 13.5389C0.879508 13.3235 1.17327 12.9607 1.47495 12.4076C2.0758 11.306 2.72778 9.41302 2.72778 6.36466C2.72778 4.67665 3.39834 3.05777 4.59195 1.86417ZM0.403588 13.7922C0.40366 13.7921 0.403731 13.7921 0.403803 13.792C0.403799 13.792 0.403795 13.792 0.403791 13.792L0.403588 13.7922ZM2.86355 13.6386H15.3213C15.2521 13.5252 15.1827 13.4052 15.1135 13.2784C14.3505 11.8795 13.6386 9.68095 13.6386 6.36466C13.6386 5.15894 13.1597 4.0026 12.3071 3.15002C11.4545 2.29745 10.2982 1.81847 9.09244 1.81847C7.88672 1.81847 6.73038 2.29745 5.8778 3.15002C5.02523 4.0026 4.54626 5.15894 4.54626 6.36466C4.54626 9.68095 3.83438 11.8795 3.07138 13.2784C3.00219 13.4052 2.93273 13.5252 2.86355 13.6386Z" fill="#5F5F5F"/>
<path fill-rule="evenodd" clip-rule="evenodd" d="M7.06253 17.3983C7.4969 17.1463 8.05328 17.2942 8.30525 17.7285C8.38518 17.8663 8.4999 17.9807 8.63793 18.0602C8.77596 18.1397 8.93245 18.1816 9.09174 18.1816C9.25103 18.1816 9.40752 18.1397 9.54555 18.0602C9.68358 17.9807 9.7983 17.8663 9.87823 17.7285C10.1302 17.2942 10.6866 17.1463 11.121 17.3983C11.5553 17.6503 11.7032 18.2066 11.4512 18.641C11.2114 19.0544 10.8673 19.3975 10.4532 19.636C10.0391 19.8745 9.56961 20 9.09174 20C8.61388 20 8.14439 19.8745 7.73031 19.636C7.31622 19.3975 6.97205 19.0544 6.73227 18.641C6.4803 18.2066 6.62817 17.6503 7.06253 17.3983Z" fill="#5F5F5F"/>
</svg>
