<svg width="26" height="26" viewBox="0 0 26 26" fill="none" xmlns="http://www.w3.org/2000/svg">
<path d="M24.5143 24.5143C23.6937 25.3348 22.3634 25.3348 21.5429 24.5143L13 15.9714L4.45714 24.5143C3.6366 25.3348 2.30625 25.3348 1.48571 24.5143C0.665177 23.6937 0.665177 22.3634 1.48571 21.5429L10.0286 13L1.48572 4.45714C0.665178 3.63661 0.665177 2.30625 1.48571 1.48571C2.30625 0.665177 3.63661 0.665177 4.45714 1.48571L13 10.0286L21.5429 1.48572C22.3634 0.665178 23.6937 0.665177 24.5143 1.48571C25.3348 2.30625 25.3348 3.63661 24.5143 4.45714L15.9714 13L24.5143 21.5429C25.3348 22.3634 25.3348 23.6937 24.5143 24.5143Z" fill="#2A3239"/>
</svg>
