<svg width="20" height="20" viewBox="0 0 20 20" fill="none" xmlns="http://www.w3.org/2000/svg">
<path d="M5.57256 18.9999H2.82902C2.34394 18.9999 1.87872 18.8102 1.53571 18.4727C1.1927 18.1351 1 17.6773 1 17.1999V10.8999C1 10.4226 1.1927 9.96472 1.53571 9.62715C1.87872 9.28959 2.34394 9.09995 2.82902 9.09995H5.57256M11.9741 7.29996V3.69998C11.9741 2.9839 11.6851 2.29715 11.1706 1.79081C10.6561 1.28446 9.95823 1 9.2306 1L5.57256 9.09995V18.9999H15.8882C16.3293 19.0048 16.7574 18.8527 17.0935 18.5715C17.4296 18.2903 17.6511 17.8991 17.7173 17.4699L18.9793 9.36995C19.0191 9.11197 19.0014 8.84856 18.9275 8.59798C18.8535 8.34739 18.7251 8.11562 18.5512 7.91872C18.3772 7.72182 18.1618 7.5645 17.9199 7.45765C17.678 7.35081 17.4154 7.29701 17.1503 7.29996H11.9741Z" stroke="#5F5F5F" stroke-width="1.5" stroke-linecap="round" stroke-linejoin="round"/>
</svg>
