<svg width="171" height="149" viewBox="0 0 171 149" fill="none" xmlns="http://www.w3.org/2000/svg">
<g filter="url(#filter0_d_403_1663)">
<path d="M35.9978 55.418C43.5747 40.8826 59.3291 32.5238 75.6132 34.3993C90.6568 36.132 103.275 46.268 108.322 60.3205L110.316 60.3205L110.32 60.3205C121.334 60.3133 132.339 66.1346 135.981 77.6297C139.473 88.6511 135.418 100.664 125.96 107.315C123.824 108.817 120.875 108.303 119.373 106.167C117.871 104.031 118.385 101.081 120.521 99.579C126.604 95.3017 129.212 87.5749 126.966 80.4859C124.87 73.8717 118.306 69.771 110.324 69.7772L104.833 69.7772C102.674 69.7772 100.789 68.3151 100.253 66.2241C97.1526 54.1415 86.9233 45.2212 74.5311 43.7939C62.1388 42.3666 50.1496 48.7277 44.3836 59.7892C38.6175 70.8508 40.2686 84.3222 48.5353 93.6639C50.2659 95.6195 50.0834 98.6078 48.1278 100.338C46.1722 102.069 43.1839 101.886 41.4533 99.9309C30.5905 87.6555 28.4209 69.9534 35.9978 55.418Z" fill="#4686F8"/>
<path d="M88.9204 84.0254L95.8922 90.9971C97.7387 92.8436 100.733 92.8436 102.579 90.997C104.426 89.1505 104.426 86.1566 102.579 84.3101L87.5334 69.2647C85.6869 67.4182 82.6931 67.4182 80.8466 69.2647L65.801 84.3101C63.9544 86.1566 63.9544 89.1505 65.8009 90.997C67.6474 92.8436 70.6413 92.8436 72.4878 90.9971L79.4637 84.0213L79.4801 119.251C79.4813 121.862 81.5993 123.978 84.2107 123.977C86.8221 123.976 88.938 121.858 88.9368 119.247L88.9204 84.0254Z" fill="#4686F8"/>
<path fill-rule="evenodd" clip-rule="evenodd" d="M108.323 62.1171C107.565 62.1171 106.888 61.6412 106.632 60.9277C101.814 47.5138 89.769 37.8381 75.4088 36.1841C59.8641 34.3937 44.8252 42.3729 37.5923 56.2483C30.3595 70.1237 32.4306 87.022 42.8001 98.7399C43.8731 99.9524 45.7258 100.066 46.9383 98.9926C48.1508 97.9196 48.2639 96.0669 47.1909 94.8544C38.431 84.9553 36.6814 70.6801 42.7915 58.9585C48.9016 47.2369 61.6062 40.4963 74.738 42.0087C87.8695 43.5212 98.7092 52.9738 101.995 65.7773C102.327 67.0737 103.496 67.9802 104.834 67.9802L109.677 67.8277L110.325 69.777M110.322 62.1171L110.32 62.1171L110.318 62.1171L108.323 62.1171M108.323 60.3203L110.318 60.3203ZM88.2336 82.3653C88.9051 82.087 89.6781 82.2407 90.1921 82.7547L97.1639 89.7263C98.3088 90.8712 100.165 90.8712 101.31 89.7263C102.455 88.5815 102.455 86.7253 101.31 85.5804L86.2642 70.5351C85.1193 69.3902 83.2632 69.3902 82.1183 70.5351L67.0727 85.5804C65.9278 86.7253 65.9278 88.5815 67.0727 89.7263C68.2175 90.8712 70.0737 90.8712 71.2185 89.7263L78.1944 82.7506C78.7082 82.2368 79.4808 82.083 80.1521 82.3609C80.8235 82.6388 81.2614 83.2937 81.2617 84.0203L81.2781 119.25C81.2789 120.869 82.592 122.181 84.2111 122.18C85.8301 122.179 87.142 120.866 87.1413 119.247L87.1249 84.026C87.1245 83.2991 87.5622 82.6437 88.2336 82.3653ZM88.9216 84.0252L88.9381 119.246C88.9393 121.858 86.8233 123.976 84.2119 123.977C81.6005 123.978 79.4826 121.862 79.4814 119.251L79.4649 84.0211L72.489 90.9969C70.6425 92.8434 67.6487 92.8434 65.8022 90.9968C63.9556 89.1503 63.9557 86.1564 65.8022 84.3099L80.8478 69.2645C82.6943 67.418 85.6881 67.418 87.5347 69.2645L102.58 84.3099C104.427 86.1564 104.427 89.1503 102.58 90.9968C100.734 92.8434 97.74 92.8434 95.8934 90.9969L88.9216 84.0252ZM110.318 60.3203L110.321 60.3203Z" fill="white"/>
</g>
<path fill-rule="evenodd" clip-rule="evenodd" d="M149.913 77.301C152.333 76.952 154.013 74.7065 153.664 72.2857C153.315 69.8649 151.069 68.1854 148.649 68.5345C146.228 68.8835 144.548 71.129 144.897 73.5498C145.246 75.9706 147.492 77.6501 149.913 77.301ZM150.041 78.1902C152.953 77.7703 154.973 75.0694 154.553 72.1575C154.133 69.2456 151.432 67.2254 148.52 67.6453C145.608 68.0652 143.588 70.7661 144.008 73.678C144.428 76.5899 147.129 78.6101 150.041 78.1902Z" fill="#EE9E28"/>
<path fill-rule="evenodd" clip-rule="evenodd" d="M158.536 53.7909C160.546 52.94 161.485 50.621 160.634 48.6113C159.783 46.6016 157.464 45.6623 155.454 46.5133C153.445 47.3643 152.505 49.6833 153.356 51.6929C154.207 53.7026 156.526 54.6419 158.536 53.7909ZM158.886 54.6182C161.353 53.5738 162.506 50.7275 161.461 48.261C160.417 45.7944 157.571 44.6416 155.104 45.686C152.637 46.7305 151.485 49.5767 152.529 52.0432C153.573 54.5098 156.42 55.6627 158.886 54.6182Z" fill="#EC538A"/>
<path fill-rule="evenodd" clip-rule="evenodd" d="M139.511 57.5205C140.453 57.3846 141.107 56.5106 140.971 55.5683C140.835 54.626 139.961 53.9722 139.019 54.1081C138.077 54.244 137.423 55.118 137.559 56.0603C137.695 57.0026 138.569 57.6564 139.511 57.5205ZM139.639 58.4097C141.073 58.203 142.067 56.8735 141.86 55.4401C141.654 54.0067 140.324 53.0122 138.891 53.2189C137.457 53.4256 136.463 54.7551 136.67 56.1885C136.876 57.6219 138.206 58.6164 139.639 58.4097Z" fill="#8296BA"/>
<path fill-rule="evenodd" clip-rule="evenodd" d="M110.331 32.9486C111.838 32.9486 113.059 31.7273 113.059 30.2206C113.059 28.714 111.838 27.4926 110.331 27.4926C108.824 27.4926 107.603 28.714 107.603 30.2206C107.603 31.7273 108.824 32.9486 110.331 32.9486ZM110.331 33.847C112.334 33.847 113.958 32.2234 113.958 30.2206C113.958 28.2178 112.334 26.5942 110.331 26.5942C108.328 26.5942 106.705 28.2178 106.705 30.2206C106.705 32.2234 108.328 33.847 110.331 33.847Z" fill="#EA9C29"/>
<path fill-rule="evenodd" clip-rule="evenodd" d="M110.813 12.1532C113.921 12.1532 116.44 9.63369 116.44 6.52577C116.44 3.41785 113.921 0.898386 110.813 0.898386C107.705 0.898386 105.185 3.41785 105.185 6.52577C105.185 9.63369 107.705 12.1532 110.813 12.1532ZM110.813 13.0515C114.417 13.0515 117.339 10.1299 117.339 6.52577C117.339 2.92169 114.417 0 110.813 0C107.209 0 104.287 2.92169 104.287 6.52577C104.287 10.1299 107.209 13.0515 110.813 13.0515Z" fill="#EC538A"/>
<path fill-rule="evenodd" clip-rule="evenodd" d="M122.322 26.7069C123.774 26.7069 124.952 25.5294 124.952 24.077C124.952 22.6245 123.774 21.4471 122.322 21.4471C120.869 21.4471 119.692 22.6245 119.692 24.077C119.692 25.5294 120.869 26.7069 122.322 26.7069ZM122.322 27.6053C124.27 27.6053 125.85 26.0256 125.85 24.077C125.85 22.1284 124.27 20.5487 122.322 20.5487C120.373 20.5487 118.793 22.1284 118.793 24.077C118.793 26.0256 120.373 27.6053 122.322 27.6053Z" fill="#8296BA"/>
<path fill-rule="evenodd" clip-rule="evenodd" d="M5.46454 62.8869C7.94536 62.8869 9.95647 60.8758 9.95647 58.395C9.95647 55.9141 7.94536 53.903 5.46454 53.903C2.98371 53.903 0.972605 55.9141 0.972605 58.395C0.972605 60.8758 2.98371 62.8869 5.46454 62.8869ZM5.46454 63.7853C8.44153 63.7853 10.8549 61.3719 10.8549 58.395C10.8549 55.418 8.44153 53.0046 5.46454 53.0046C2.48755 53.0046 0.0742188 55.418 0.0742188 58.395C0.0742188 61.3719 2.48755 63.7853 5.46454 63.7853Z" fill="#EA9C29"/>
<path fill-rule="evenodd" clip-rule="evenodd" d="M5.55694 12.0199C8.03777 12.0199 10.0489 10.0088 10.0489 7.52801C10.0489 5.04719 8.03777 3.03608 5.55694 3.03608C3.07612 3.03608 1.06501 5.04719 1.06501 7.52801C1.06501 10.0088 3.07612 12.0199 5.55694 12.0199ZM5.55694 12.9183C8.53393 12.9183 10.9473 10.505 10.9473 7.52801C10.9473 4.55102 8.53393 2.1377 5.55694 2.1377C2.57995 2.1377 0.166626 4.55102 0.166626 7.52801C0.166626 10.505 2.57995 12.9183 5.55694 12.9183Z" fill="#EA9C29"/>
<path fill-rule="evenodd" clip-rule="evenodd" d="M30.9777 33.0581C33.1601 33.0581 34.9293 31.2889 34.9293 29.1065C34.9293 26.924 33.1601 25.1549 30.9777 25.1549C28.7953 25.1549 27.0261 26.924 27.0261 29.1065C27.0261 31.2889 28.7953 33.0581 30.9777 33.0581ZM30.9777 33.9564C33.6562 33.9564 35.8277 31.785 35.8277 29.1065C35.8277 26.4279 33.6562 24.2565 30.9777 24.2565C28.2991 24.2565 26.1277 26.4279 26.1277 29.1065C26.1277 31.785 28.2991 33.9564 30.9777 33.9564Z" fill="#EC538A"/>
<path fill-rule="evenodd" clip-rule="evenodd" d="M21.5621 57.3504C22.5142 57.3504 23.286 56.5786 23.286 55.6265C23.286 54.6745 22.5142 53.9027 21.5621 53.9027C20.6101 53.9027 19.8383 54.6745 19.8383 55.6265C19.8383 56.5786 20.6101 57.3504 21.5621 57.3504ZM21.5621 58.2487C23.0103 58.2487 24.1844 57.0747 24.1844 55.6265C24.1844 54.1783 23.0103 53.0043 21.5621 53.0043C20.1139 53.0043 18.9399 54.1783 18.9399 55.6265C18.9399 57.0747 20.1139 58.2487 21.5621 58.2487Z" fill="#8296BA"/>
<defs>
<filter id="filter0_d_403_1663" x="16.5162" y="29.1383" width="135.704" height="119.839" filterUnits="userSpaceOnUse" color-interpolation-filters="sRGB">
<feFlood flood-opacity="0" result="BackgroundImageFix"/>
<feColorMatrix in="SourceAlpha" type="matrix" values="0 0 0 0 0 0 0 0 0 0 0 0 0 0 0 0 0 0 127 0" result="hardAlpha"/>
<feOffset dy="10"/>
<feGaussianBlur stdDeviation="7.5"/>
<feComposite in2="hardAlpha" operator="out"/>
<feColorMatrix type="matrix" values="0 0 0 0 0.586979 0 0 0 0 0.690537 0 0 0 0 0.875 0 0 0 0.35 0"/>
<feBlend mode="normal" in2="BackgroundImageFix" result="effect1_dropShadow_403_1663"/>
<feBlend mode="normal" in="SourceGraphic" in2="effect1_dropShadow_403_1663" result="shape"/>
</filter>
</defs>
</svg>
